<?xml version="1.0" encoding="UTF-8" standalone="no"?>
<svg
   xmlns:dc="http://purl.org/dc/elements/1.1/"
   xmlns:cc="http://creativecommons.org/ns#"
   xmlns:rdf="http://www.w3.org/1999/02/22-rdf-syntax-ns#"
   xmlns:svg="http://www.w3.org/2000/svg"
   xmlns="http://www.w3.org/2000/svg"
   viewBox="0 0 933.33331 933.33331"
   height="933.33331"
   width="933.33331"
   xml:space="preserve"
   id="svg2"
   version="1.1"><metadata
     id="metadata8"><rdf:RDF><cc:Work
         rdf:about=""><dc:format>image/svg+xml</dc:format><dc:type
           rdf:resource="http://purl.org/dc/dcmitype/StillImage" /></cc:Work></rdf:RDF></metadata><defs
     id="defs6"><clipPath
       id="clipPath18"
       clipPathUnits="userSpaceOnUse"><path
         id="path16"
         d="M 0,700 H 700 V 0 H 0 Z" /></clipPath></defs><g
     transform="matrix(1.3333333,0,0,-1.3333333,0,933.33333)"
     id="g10"><g
       id="g12"><g
         clip-path="url(#clipPath18)"
         id="g14"><g
           transform="translate(207.2856,325.9805)"
           id="g20"><path
             id="path22"
             style="fill:#ae0d41;fill-opacity:1;fill-rule:evenodd;stroke:none"
             d="m 0,0 c 0.532,2.949 1.109,5.891 1.586,8.85 1.149,7.13 -2.647,13.567 -9.632,15.165 -5.76,1.318 -11.725,1.735 -17.593,2.592 -5.335,0.78 -10.852,0.995 -15.946,2.57 -7.809,2.413 -13.614,7.287 -14.535,16.21 -0.449,4.353 0.672,8.342 3.624,11.467 6.377,6.748 12.984,13.279 19.529,19.867 2.175,2.189 5.587,2.008 7.787,-0.173 6.59,-6.533 13.255,-12.99 19.831,-19.537 4.354,-4.336 8.566,-8.816 12.913,-13.159 4.076,-4.071 8.356,-7.943 12.325,-12.113 1.738,-1.826 4.121,-3.23 4.517,-6.207 0.529,-3.981 -2.459,-5.715 -4.702,-7.893 C 15.194,13.258 10.582,8.982 6,4.677 4.174,2.961 2.318,1.276 0.475,-0.423 0.316,-0.281 0.158,-0.142 0,0" /></g><g
           transform="translate(149.1455,364.7373)"
           id="g24"><path
             id="path26"
             style="fill:#0163ac;fill-opacity:1;fill-rule:evenodd;stroke:none"
             d="m 0,0 c -0.454,-2.38 -0.942,-4.229 -1.132,-6.108 -0.263,-2.607 -0.449,-5.24 -0.408,-7.857 0.101,-6.403 5.512,-10.086 10.643,-11.48 7.031,-1.911 14.251,-2.211 21.483,-2.435 6.278,-0.192 12.161,-1.859 17.434,-5.318 5.171,-3.392 8.046,-8.437 8.35,-14.442 0.188,-3.722 -1.61,-7.343 -4.176,-10.224 -2.973,-3.337 -6.124,-6.518 -9.265,-9.701 -3.404,-3.45 -6.873,-6.836 -10.34,-10.224 -1.37,-1.34 -5.373,-1.514 -6.764,-0.168 -3.767,3.644 -7.447,7.379 -11.152,11.088 -3.019,3.022 -6.026,6.057 -9.037,9.088 -4.486,4.513 -8.952,9.048 -13.463,13.536 -4.246,4.224 -8.549,8.391 -12.803,12.607 -1.061,1.051 -2.114,2.133 -3.02,3.316 -1.286,1.676 -1.249,4.151 0.27,5.86 1.885,2.12 3.967,4.072 6.025,6.032 C -11.727,-11.067 -6.067,-5.739 0,0" /></g><g
           transform="translate(383.6572,345.1719)"
           id="g28"><path
             id="path30"
             style="fill:#0163ac;fill-opacity:1;fill-rule:evenodd;stroke:none"
             d="m 0,0 c 0,7.689 0.005,15.379 -0.001,23.068 -0.004,3.441 0.767,4.392 4.172,5.015 1.407,0.257 2.817,0.534 4.237,0.681 6.116,0.633 10.469,-2.111 14.211,-6.799 3.87,-4.848 8.287,-9.258 12.459,-13.865 1.807,-1.996 3.525,-4.083 5.442,-5.964 0.632,-0.621 2.001,-1.222 2.614,-0.937 0.669,0.312 1.181,1.659 1.195,2.565 0.1,6.331 0.043,12.664 0.058,18.996 0.008,3.92 0.786,4.583 4.556,5.359 2.953,0.609 5.761,0.572 8.695,-0.047 3.373,-0.71 4.392,-1.683 4.391,-5.114 -0.003,-9.8 -0.021,-19.6 -0.026,-29.399 -0.002,-5.428 0.017,-10.857 0.017,-16.285 0,-4.011 -1.164,-5.653 -5.177,-5.916 -3.249,-0.212 -6.57,0.207 -9.816,0.653 -1.125,0.154 -2.341,1.03 -3.145,1.913 -7.309,8.033 -14.537,16.139 -21.789,24.223 -0.151,0.168 -0.266,0.407 -0.453,0.498 -0.89,0.43 -2.168,1.39 -2.618,1.099 -0.743,-0.483 -1.318,-1.776 -1.335,-2.738 -0.116,-6.632 -0.065,-13.267 -0.075,-19.901 -0.006,-3.87 -0.379,-4.885 -4.162,-5.423 -3.39,-0.482 -6.949,0.033 -10.415,0.325 -2.654,0.223 -3.029,2.269 -3.022,4.472 0.02,6.408 0.015,12.816 0.019,19.224 0.001,1.433 0.001,2.864 0.001,4.297 z" /></g><g
           transform="translate(275.6016,315.3115)"
           id="g32"><path
             id="path34"
             style="fill:#0163ac;fill-opacity:1;fill-rule:evenodd;stroke:none"
             d="m 0,0 c -11.959,0.361 -20.967,1.982 -29.501,5.896 -4.236,1.943 -4.803,5.529 -1.3,8.648 0.28,0.249 0.546,0.519 0.797,0.797 3.259,3.624 5.438,4.107 9.822,1.949 6.208,-3.056 12.751,-4.567 19.653,-4.275 1.839,0.077 3.766,0.46 5.437,1.194 0.937,0.412 1.998,1.848 1.973,2.795 -0.028,1.07 -1.005,2.757 -1.929,3.053 -4.347,1.394 -8.775,2.611 -13.252,3.499 -5.841,1.157 -11.657,2.294 -16.95,5.166 -9.773,5.301 -9.307,17.683 -1.104,23.877 6.851,5.174 14.901,6.26 23.094,5.937 5.594,-0.22 11.181,-1.228 16.711,-2.224 2.472,-0.445 4.851,-1.597 7.167,-2.659 1.97,-0.904 2.519,-4.521 0.962,-6.592 -1.251,-1.664 -2.682,-3.269 -4.305,-4.56 -2.068,-1.645 -4.477,-1.096 -6.647,-0.065 -6.147,2.919 -12.578,3.955 -19.312,3.168 -1.981,-0.231 -3.798,-1.983 -3.756,-3.652 0.052,-2.047 1.435,-3.118 3.227,-3.536 5.483,-1.283 10.997,-2.433 16.488,-3.682 5.439,-1.237 10.627,-2.925 15.317,-6.229 3.366,-2.372 5.271,-9.573 4.059,-13.749 C 24.639,7.829 19.449,4.289 13.152,2.434 8.084,0.94 2.714,0.478 0,0" /></g><g
           transform="translate(354.4189,354.6001)"
           id="g36"><path
             id="path38"
             style="fill:#0163ac;fill-opacity:1;fill-rule:evenodd;stroke:none"
             d="m 0,0 c 0,4.675 -0.018,9.351 0.007,14.025 0.016,3.018 0.954,3.879 3.848,4.594 3.62,0.895 7.146,0.789 10.73,-0.072 2.478,-0.595 3.592,-1.609 3.58,-4.164 -0.052,-10.853 0.384,-21.754 -0.495,-32.545 -0.746,-9.157 -6.484,-15.75 -15.716,-18.653 -5.658,-1.779 -11.57,-2.894 -17.574,-2.229 -6.585,0.729 -13.198,1.682 -18.665,5.867 -5.45,4.172 -8.294,10.016 -8.538,16.716 -0.377,10.316 -0.184,20.655 -0.159,30.985 0.005,2.103 1.121,3.453 3.302,3.979 3.738,0.901 7.43,0.992 11.179,0.073 2.867,-0.701 3.66,-1.456 3.674,-4.494 0.04,-8.67 -0.124,-17.344 0.073,-26.01 0.06,-2.63 0.511,-5.508 1.692,-7.804 3.141,-6.103 12.183,-6.583 16.992,-4.074 4.363,2.275 6.073,5.97 6.064,10.685 C -0.013,-8.747 -0.008,-4.374 -0.008,0 Z" /></g><g
           transform="translate(488,338.7979)"
           id="g40"><path
             id="path42"
             style="fill:#0163ac;fill-opacity:1;fill-rule:evenodd;stroke:none"
             d="m 0,0 v -0.021 c 1.508,0 3.032,-0.143 4.517,0.041 C 5.931,0.195 7.034,1.062 6.355,2.66 4.891,6.114 3.319,9.528 1.67,12.899 0.896,14.483 -0.882,14.508 -1.656,12.951 -3.325,9.591 -4.911,6.187 -6.403,2.746 -7.04,1.278 -6.396,0.164 -4.746,0.027 -3.174,-0.103 -1.583,0 0,0 m 25.298,-22.55 c -0.829,0.037 -1.657,0.1 -2.486,0.109 -3.766,0.044 -6.482,1.54 -7.578,5.368 -0.205,0.717 -0.578,1.385 -0.857,2.081 -1.001,2.485 -2.741,3.364 -5.483,3.277 -6.401,-0.203 -12.813,-0.133 -19.217,-0.038 -2.096,0.031 -3.138,-0.878 -3.829,-2.73 -0.705,-1.888 -1.454,-3.823 -2.578,-5.468 -0.638,-0.934 -1.993,-1.604 -3.151,-1.911 -3.761,-1 -7.594,-1.143 -11.31,0.21 -2.742,0.998 -3.524,3.205 -2.283,5.754 3.52,7.226 6.985,14.478 10.556,21.678 3.997,8.06 8.081,16.076 12.139,24.106 2.616,5.176 5.709,6.155 12.619,5.837 6.027,-0.276 8.749,-3.316 10.886,-8.516 2.845,-6.93 6.555,-13.504 9.888,-20.234 3.594,-7.262 7.197,-14.523 10.764,-21.798 2.013,-4.104 0.517,-6.898 -4.018,-7.501 -1.34,-0.178 -2.708,-0.155 -4.062,-0.224" /></g><g
           transform="translate(543.002,373.2764)"
           id="g44"><path
             id="path46"
             style="fill:#0163ac;fill-opacity:1;fill-rule:evenodd;stroke:none"
             d="m 0,0 c 7.689,0 15.38,0.006 23.07,-0.001 4.571,-0.005 5.728,-1.149 5.817,-5.757 0.02,-1.054 0.018,-2.117 -0.093,-3.163 -0.285,-2.697 -1.73,-3.958 -4.485,-3.981 -3.92,-0.033 -7.84,-0.068 -11.76,-0.073 C 9.45,-12.979 8.62,-13.746 8.613,-16.788 8.589,-27.795 8.452,-38.804 8.609,-49.808 8.7,-56.071 7.187,-55.975 2.367,-56.703 c -2.802,-0.424 -5.851,0.163 -8.687,0.774 -2.2,0.474 -3.066,2.337 -3.053,4.676 0.059,11.384 0.043,22.768 0.028,34.152 -0.004,3.824 -0.301,4.097 -4.137,4.111 -3.543,0.012 -7.086,-0.02 -10.629,0.01 -3.29,0.027 -4.567,0.975 -4.98,4.231 -0.24,1.903 -0.1,3.916 0.237,5.813 0.415,2.331 2.256,2.959 4.427,2.949 5.656,-0.028 11.309,-0.017 16.963,-0.02 2.488,-0.001 4.977,0 7.464,0 z" /></g><g
           transform="translate(489.3623,16.9395)"
           id="g48"><path
             id="path50"
             style="fill:#000000;fill-opacity:1;fill-rule:nonzero;stroke:none"
             d="m 0,0 c 0,0.454 -0.367,0.718 -0.981,0.718 -0.503,0 -1.093,-0.264 -1.574,-0.696 L -2.938,0.75 c 0.624,0.494 1.35,0.798 2.084,0.798 1.094,0 1.836,-0.551 1.836,-1.412 0,-0.56 -0.439,-1.191 -1.053,-1.829 l -1.533,-1.548 h 2.858 v -0.846 h -4.095 v 0.693 L -0.71,-1.19 C -0.287,-0.767 0,-0.32 0,0" /></g><g
           transform="translate(492.3232,15.6543)"
           id="g52"><path
             id="path54"
             style="fill:#000000;fill-opacity:1;fill-rule:nonzero;stroke:none"
             d="m 0,0 c 0,-1.422 0.392,-2.092 1.174,-2.092 0.774,0 1.165,0.67 1.165,2.092 0,1.421 -0.391,2.083 -1.165,2.083 C 0.392,2.083 0,1.421 0,0 m 3.273,0 c 0,-1.82 -0.75,-2.826 -2.099,-2.826 -1.358,0 -2.108,1.006 -2.108,2.826 0,1.812 0.75,2.816 2.108,2.816 1.349,0 2.099,-1.004 2.099,-2.816" /></g><g
           transform="translate(498.9482,18.4482)"
           id="g56"><path
             id="path58"
             style="fill:#000000;fill-opacity:1;fill-rule:nonzero;stroke:none"
             d="m 0,0 v -5.596 h -0.941 v 4.749 H -2.146 V 0 Z" /></g><g
           transform="translate(502.3418,14.6641)"
           id="g60"><path
             id="path62"
             style="fill:#000000;fill-opacity:1;fill-rule:nonzero;stroke:none"
             d="m 0,0 c -0.009,-0.487 0.35,-1.046 1.157,-1.046 0.678,0 1.141,0.4 1.141,1.078 0,0.638 -0.423,1.037 -1.102,1.037 C 0.437,1.069 -0.009,0.575 0,0 m 1.404,3.04 c -1.086,0 -1.595,-0.813 -1.556,-2.026 0.296,0.526 0.822,0.798 1.523,0.798 1.118,0 1.805,-0.696 1.805,-1.788 0,-1.157 -0.782,-1.875 -1.972,-1.875 -1.412,0 -2.273,1.004 -2.273,2.72 0,1.789 0.933,2.954 2.409,2.954 0.551,0 1.213,-0.168 1.669,-0.423 L 2.642,2.69 C 2.298,2.913 1.827,3.04 1.404,3.04" /></g><g
           transform="translate(512.0479,15.585)"
           id="g64"><path
             id="path66"
             style="fill:#000000;fill-opacity:1;fill-rule:nonzero;stroke:none"
             d="M 0,0 0.714,-0.24 C 0.602,-0.612 0.415,-0.897 0.155,-1.097 c -0.26,-0.198 -0.57,-0.297 -0.932,-0.297 -0.505,0 -0.917,0.166 -1.238,0.498 -0.318,0.331 -0.478,0.788 -0.478,1.37 0,0.381 0.072,0.722 0.213,1.02 0.141,0.299 0.346,0.523 0.614,0.671 0.268,0.148 0.567,0.222 0.898,0.222 0.365,0 0.668,-0.087 0.912,-0.26 C 0.389,1.954 0.577,1.68 0.714,1.308 L -0.005,1.14 c -0.082,0.215 -0.189,0.372 -0.321,0.469 -0.132,0.099 -0.287,0.148 -0.468,0.148 -0.269,0 -0.49,-0.103 -0.661,-0.304 -0.172,-0.203 -0.257,-0.521 -0.257,-0.952 0,-0.432 0.084,-0.749 0.252,-0.953 0.169,-0.204 0.371,-0.307 0.607,-0.307 0.199,0 0.371,0.058 0.515,0.175 C -0.192,-0.467 -0.08,-0.272 0,0 M -0.824,3.234 C -1.293,3.234 -1.74,3.117 -2.172,2.883 -2.602,2.649 -2.939,2.314 -3.185,1.878 -3.431,1.442 -3.554,0.984 -3.554,0.505 c 0,-0.473 0.121,-0.925 0.363,-1.357 0.24,-0.432 0.577,-0.768 1.008,-1.009 0.432,-0.242 0.884,-0.363 1.359,-0.363 0.471,0 0.925,0.121 1.356,0.363 0.432,0.241 0.768,0.577 1.009,1.009 0.241,0.432 0.362,0.884 0.362,1.357 0,0.476 -0.123,0.932 -0.369,1.371 C 1.29,2.313 0.951,2.649 0.521,2.883 0.091,3.117 -0.358,3.234 -0.824,3.234 m 0,0.669 c 0.582,0 1.14,-0.146 1.676,-0.438 C 1.387,3.171 1.808,2.754 2.113,2.211 2.419,1.669 2.572,1.101 2.572,0.505 c 0,-0.591 -0.149,-1.156 -0.45,-1.692 -0.3,-0.537 -0.719,-0.956 -1.255,-1.255 -0.537,-0.3 -1.101,-0.451 -1.691,-0.451 -0.593,0 -1.156,0.151 -1.694,0.451 -0.537,0.299 -0.956,0.718 -1.254,1.255 -0.301,0.536 -0.452,1.101 -0.452,1.692 0,0.596 0.154,1.164 0.459,1.706 0.307,0.543 0.728,0.96 1.262,1.254 0.536,0.292 1.095,0.438 1.679,0.438" /></g><g
           transform="translate(519.4004,17.5928)"
           id="g68"><path
             id="path70"
             style="fill:#000000;fill-opacity:1;fill-rule:nonzero;stroke:none"
             d="m 0,0 c -0.551,0 -0.909,-0.207 -0.909,-0.582 0,-1.222 3.015,-0.566 3.008,-2.577 0,-0.999 -0.878,-1.613 -2.108,-1.613 -0.878,0 -1.708,0.359 -2.282,0.885 l 0.407,0.815 c 0.574,-0.528 1.293,-0.815 1.892,-0.815 0.654,0 1.046,0.248 1.046,0.679 0,1.245 -3.018,0.551 -3.018,2.538 0,0.958 0.822,1.557 2.035,1.557 0.727,0 1.438,-0.233 1.956,-0.575 L 1.636,-0.518 C 1.029,-0.151 0.423,0 0,0" /></g><g
           transform="translate(526.1367,16.5078)"
           id="g72"><path
             id="path74"
             style="fill:#000000;fill-opacity:1;fill-rule:nonzero;stroke:none"
             d="m 0,0 c 0,0.734 -0.487,1.085 -1.349,1.085 h -1.244 v -2.21 h 1.244 C -0.487,-1.125 0,-0.759 0,0 m 0.902,0.024 c 0,-1.261 -0.806,-1.996 -2.211,-1.996 h -1.284 v -1.683 h -0.943 v 5.587 h 2.227 c 1.405,0 2.211,-0.695 2.211,-1.908" /></g><g
           transform="translate(531.9639,18.4395)"
           id="g76"><path
             id="path78"
             style="fill:#000000;fill-opacity:1;fill-rule:nonzero;stroke:none"
             d="m 0,0 v -0.847 h -3.049 v -1.508 h 2.731 V -3.2 H -3.049 V -4.741 H 0.097 V -5.587 H -3.99 l 0,5.587 z" /></g><g
           transform="translate(534.1348,18.4395)"
           id="g80"><path
             id="path82"
             style="fill:#000000;fill-opacity:1;fill-rule:nonzero;stroke:none"
             d="M 0,0 2.993,-4.016 V 0 H 3.92 V -5.587 H 2.993 L 0.017,-1.58 V -5.587 H -0.926 V 0 Z" /></g><g
           transform="translate(542.0215,17.625)"
           id="g84"><path
             id="path86"
             style="fill:#000000;fill-opacity:1;fill-rule:nonzero;stroke:none"
             d="m 0,0 c -1.117,0 -1.995,-0.862 -1.995,-1.964 0,-1.1 0.878,-1.972 1.995,-1.972 0.559,0 1.133,0.257 1.557,0.665 l 0.558,-0.624 c -0.566,-0.558 -1.373,-0.917 -2.164,-0.917 -1.635,0 -2.904,1.236 -2.904,2.841 0,1.588 1.285,2.809 2.937,2.809 0.789,0 1.58,-0.327 2.123,-0.861 L 1.557,-0.71 C 1.149,-0.271 0.567,0 0,0" /></g><g
           transform="translate(549.085,18.4395)"
           id="g88"><path
             id="path90"
             style="fill:#000000;fill-opacity:1;fill-rule:nonzero;stroke:none"
             d="m 0,0 v -0.847 h -3.049 v -1.508 h 2.731 V -3.2 H -3.049 V -4.741 H 0.097 V -5.587 H -3.99 l 0,5.587 z" /></g><g
           transform="translate(552.5977,15.3828)"
           id="g92"><path
             id="path94"
             style="fill:#000000;fill-opacity:1;fill-rule:nonzero;stroke:none"
             d="M 0,0 C 0.862,0 1.357,0.366 1.357,1.125 1.357,1.859 0.862,2.21 0,2.21 H -1.325 V 0 Z M 1.277,-2.53 0.256,-0.838 C 0.176,-0.847 0.087,-0.847 0,-0.847 H -1.325 V -2.53 H -2.267 V 3.057 H 0 c 1.429,0 2.251,-0.695 2.251,-1.908 0,-0.894 -0.415,-1.525 -1.158,-1.812 L 2.347,-2.53 Z" /></g><g
           transform="translate(561.4092,14.9512)"
           id="g96"><path
             id="path98"
             style="fill:#000000;fill-opacity:1;fill-rule:nonzero;stroke:none"
             d="M 0,0 -1.053,2.482 -2.107,0 Z m 0.359,-0.838 h -2.816 l -0.535,-1.261 h -0.983 l 2.467,5.587 h 0.965 L 1.899,-2.099 H 0.894 Z" /></g><g
           transform="translate(566.3184,15.3828)"
           id="g100"><path
             id="path102"
             style="fill:#000000;fill-opacity:1;fill-rule:nonzero;stroke:none"
             d="M 0,0 C 0.862,0 1.356,0.366 1.356,1.125 1.356,1.859 0.862,2.21 0,2.21 H -1.324 V 0 Z M 1.277,-2.53 0.256,-0.838 C 0.176,-0.847 0.088,-0.847 0,-0.847 H -1.324 V -2.53 H -2.267 V 3.057 H 0 c 1.429,0 2.251,-0.695 2.251,-1.908 0,-0.894 -0.414,-1.525 -1.158,-1.812 L 2.347,-2.53 Z" /></g><g
           transform="translate(572.3281,13.6582)"
           id="g104"><path
             id="path106"
             style="fill:#000000;fill-opacity:1;fill-rule:nonzero;stroke:none"
             d="M 0,0 C 1.095,0 1.988,0.878 1.988,1.988 1.988,3.097 1.095,3.959 0,3.959 -1.1,3.959 -2.011,3.097 -2.011,1.988 -2.011,0.878 -1.092,0 0,0 m 3.281,-1.42 c -0.43,-0.385 -0.997,-0.615 -1.515,-0.615 -0.704,0 -1.334,0.438 -1.781,1.19 -1.669,0.007 -2.954,1.236 -2.954,2.833 0,1.604 1.293,2.817 2.962,2.817 1.668,0 2.961,-1.221 2.961,-2.817 0,-1.277 -0.822,-2.323 -2.011,-2.69 0.303,-0.327 0.614,-0.519 0.934,-0.519 0.296,0 0.662,0.175 1.029,0.463 z" /></g><g
           transform="translate(578.6826,13.6582)"
           id="g108"><path
             id="path110"
             style="fill:#000000;fill-opacity:1;fill-rule:nonzero;stroke:none"
             d="M 0,0 C 0.91,0 1.476,0.56 1.476,1.509 V 4.781 H 2.418 V 1.509 c 0,-1.461 -0.918,-2.354 -2.427,-2.354 -1.508,0 -2.433,0.893 -2.433,2.354 v 3.272 h 0.941 V 1.509 C -1.501,0.566 -0.918,0 0,0" /></g><path
           id="path112"
           style="fill:#000000;fill-opacity:1;fill-rule:nonzero;stroke:none"
           d="m 583.393,12.853 h -0.942 v 5.587 h 0.942 z" /><g
           transform="translate(585.9775,18.4395)"
           id="g114"><path
             id="path116"
             style="fill:#000000;fill-opacity:1;fill-rule:nonzero;stroke:none"
             d="M 0,0 1.844,-3.712 3.68,0 H 4.79 V -5.587 H 3.92 L 3.912,-1.413 2.148,-5.005 H 1.533 L -0.23,-1.413 V -5.587 H -1.116 V 0 Z" /></g><g
           transform="translate(596.2354,18.4395)"
           id="g118"><path
             id="path120"
             style="fill:#000000;fill-opacity:1;fill-rule:nonzero;stroke:none"
             d="m 0,0 v -0.847 h -3.049 v -1.508 h 2.73 V -3.2 h -2.73 V -4.741 H 0.096 V -5.587 H -3.99 V 0 Z" /></g><g
           transform="translate(601.71,15.6377)"
           id="g122"><path
             id="path124"
             style="fill:#000000;fill-opacity:1;fill-rule:nonzero;stroke:none"
             d="m 0,0 c 0,1.142 -0.854,1.955 -1.955,1.955 h -1.333 v -3.894 h 1.373 C -0.829,-1.939 0,-1.134 0,0 m 0.95,0.009 c 0,-1.613 -1.221,-2.794 -2.914,-2.794 h -2.265 v 5.587 h 2.29 c 1.675,0 2.889,-1.173 2.889,-2.793" /></g><g
           transform="translate(607.6562,18.4395)"
           id="g126"><path
             id="path128"
             style="fill:#000000;fill-opacity:1;fill-rule:nonzero;stroke:none"
             d="m 0,0 v -0.847 h -3.047 v -1.508 h 2.729 V -3.2 H -3.047 V -4.741 H 0.097 V -5.587 H -3.99 l 0,5.587 z" /></g><g
           transform="translate(610.666,17.5928)"
           id="g130"><path
             id="path132"
             style="fill:#000000;fill-opacity:1;fill-rule:nonzero;stroke:none"
             d="m 0,0 c -0.55,0 -0.909,-0.207 -0.909,-0.582 0,-1.222 3.016,-0.566 3.01,-2.577 0,-0.999 -0.878,-1.613 -2.109,-1.613 -0.877,0 -1.707,0.359 -2.282,0.885 l 0.407,0.815 c 0.574,-0.528 1.293,-0.815 1.891,-0.815 0.655,0 1.046,0.248 1.046,0.679 0,1.245 -3.017,0.551 -3.017,2.538 0,0.958 0.822,1.557 2.035,1.557 0.727,0 1.437,-0.233 1.956,-0.575 l -0.39,-0.83 C 1.029,-0.151 0.423,0 0,0" /></g><g
           transform="translate(618.3369,19.3652)"
           id="g134"><path
             id="path136"
             style="fill:#000000;fill-opacity:1;fill-rule:nonzero;stroke:none"
             d="M 0,0 -2.53,-7.447 H -3.312 L -0.781,0 Z" /></g><g
           transform="translate(624.8662,18.4395)"
           id="g138"><path
             id="path140"
             style="fill:#000000;fill-opacity:1;fill-rule:nonzero;stroke:none"
             d="m 0,0 v -0.678 l -3.4,-4.063 h 3.439 v -0.846 h -4.716 v 0.679 l 3.408,4.061 H -4.574 V 0 Z" /></g><g
           transform="translate(626.4385,15.6465)"
           id="g142"><path
             id="path144"
             style="fill:#000000;fill-opacity:1;fill-rule:nonzero;stroke:none"
             d="m 0,0 c 0,-1.11 0.919,-1.988 2.011,-1.988 1.094,0 1.988,0.878 1.988,1.988 0,1.108 -0.894,1.971 -1.988,1.971 C 0.91,1.971 0,1.108 0,0 m 4.965,0 c 0,-1.598 -1.293,-2.833 -2.961,-2.833 -1.669,0 -2.962,1.235 -2.962,2.833 0,1.604 1.293,2.816 2.962,2.816 1.668,0 2.961,-1.22 2.961,-2.816" /></g><g
           transform="translate(636.4014,18.4395)"
           id="g146"><path
             id="path148"
             style="fill:#000000;fill-opacity:1;fill-rule:nonzero;stroke:none"
             d="m 0,0 v -0.847 h -3.05 v -1.508 h 2.73 V -3.2 H -3.05 V -4.741 H 0.095 V -5.587 H -3.991 V 0 Z" /></g><path
           id="path150"
           style="fill:#000000;fill-opacity:1;fill-rule:nonzero;stroke:none"
           d="m 638.589,12.853 h -0.943 v 5.587 h 0.943 z" /><g
           transform="translate(641.1738,18.4395)"
           id="g152"><path
             id="path154"
             style="fill:#000000;fill-opacity:1;fill-rule:nonzero;stroke:none"
             d="M 0,0 1.844,-3.712 3.68,0 H 4.789 V -5.587 H 3.919 L 3.911,-1.413 2.147,-5.005 H 1.532 l -1.763,3.592 V -5.587 H -1.117 V 0 Z" /></g><g
           transform="translate(650.6885,14.9512)"
           id="g156"><path
             id="path158"
             style="fill:#000000;fill-opacity:1;fill-rule:nonzero;stroke:none"
             d="M 0,0 -1.054,2.482 -2.107,0 Z m 0.358,-0.838 h -2.816 l -0.535,-1.261 h -0.983 l 2.467,5.587 h 0.966 L 1.899,-2.099 H 0.895 Z" /></g><g
           transform="translate(657.0098,15.5977)"
           id="g160"><path
             id="path162"
             style="fill:#000000;fill-opacity:1;fill-rule:nonzero;stroke:none"
             d="m 0,0 h 0.822 v -2.059 c -0.567,-0.431 -1.404,-0.725 -2.171,-0.725 -1.652,0 -2.937,1.235 -2.937,2.833 0,1.596 1.301,2.816 2.993,2.816 0.798,0 1.597,-0.303 2.147,-0.781 L 0.319,1.389 c -0.43,0.399 -1.03,0.638 -1.612,0.638 -1.141,0 -2.035,-0.87 -2.035,-1.978 0,-1.118 0.902,-1.988 2.043,-1.988 0.415,0 0.887,0.144 1.285,0.382 z" /></g><g
           transform="translate(663.1562,18.4395)"
           id="g164"><path
             id="path166"
             style="fill:#000000;fill-opacity:1;fill-rule:nonzero;stroke:none"
             d="m 0,0 v -0.847 h -3.049 v -1.508 h 2.73 V -3.2 h -2.73 V -4.741 H 0.096 V -5.587 H -3.99 V 0 Z" /></g><g
           transform="translate(665.3281,18.4395)"
           id="g168"><path
             id="path170"
             style="fill:#000000;fill-opacity:1;fill-rule:nonzero;stroke:none"
             d="M 0,0 2.993,-4.016 V 0 H 3.919 V -5.587 H 2.993 L 0.015,-1.58 V -5.587 H -0.927 V 0 Z" /></g><g
           transform="translate(671.3457,13.3066)"
           id="g172"><path
             id="path174"
             style="fill:#000000;fill-opacity:1;fill-rule:nonzero;stroke:none"
             d="m 0,0 c 0,-0.159 -0.056,-0.295 -0.144,-0.423 l -0.455,-0.686 h -0.47 l 0.303,0.694 c -0.143,0.097 -0.215,0.247 -0.215,0.415 0,0.296 0.208,0.511 0.494,0.511 C -0.23,0.511 0,0.319 0,0" /></g><g
           transform="translate(674.9219,17.625)"
           id="g176"><path
             id="path178"
             style="fill:#000000;fill-opacity:1;fill-rule:nonzero;stroke:none"
             d="m 0,0 c -1.118,0 -1.996,-0.862 -1.996,-1.964 0,-1.1 0.878,-1.972 1.996,-1.972 0.558,0 1.133,0.257 1.557,0.665 l 0.558,-0.624 c -0.566,-0.558 -1.373,-0.917 -2.164,-0.917 -1.636,0 -2.904,1.236 -2.904,2.841 0,1.588 1.284,2.809 2.937,2.809 0.789,0 1.579,-0.327 2.123,-0.861 L 1.557,-0.71 C 1.149,-0.271 0.566,0 0,0" /></g><g
           transform="translate(678.3701,15.6465)"
           id="g180"><path
             id="path182"
             style="fill:#000000;fill-opacity:1;fill-rule:nonzero;stroke:none"
             d="m 0,0 c 0,-1.11 0.918,-1.988 2.012,-1.988 1.093,0 1.986,0.878 1.986,1.988 0,1.108 -0.893,1.971 -1.986,1.971 C 0.91,1.971 0,1.108 0,0 m 4.964,0 c 0,-1.598 -1.292,-2.833 -2.96,-2.833 -1.669,0 -2.962,1.235 -2.962,2.833 0,1.604 1.293,2.816 2.962,2.816 1.668,0 2.96,-1.22 2.96,-2.816" /></g><g
           transform="translate(685.459,18.4395)"
           id="g184"><path
             id="path186"
             style="fill:#000000;fill-opacity:1;fill-rule:nonzero;stroke:none"
             d="M 0,0 1.843,-3.712 3.679,0 H 4.788 V -5.587 H 3.918 L 3.91,-1.413 2.146,-5.005 H 1.531 l -1.763,3.592 V -5.587 H -1.118 V 0 Z" /></g></g></g></g></svg>